<?xml version="1.0" standalone="no"?>
<!DOCTYPE svg PUBLIC "-//W3C//DTD SVG 20010904//EN"
 "http://www.w3.org/TR/2001/REC-SVG-20010904/DTD/svg10.dtd">
<svg version="1.0" xmlns="http://www.w3.org/2000/svg"
 width="500.000000pt" height="243.000000pt" viewBox="0 0 500.000000 243.000000"
 preserveAspectRatio="xMidYMid meet">

<g transform="translate(0.000000,243.000000) scale(0.100000,-0.100000)"
fill="#000000" stroke="none">
<path d="M3026 2289 c-32 -25 -36 -77 -7 -103 28 -25 79 -17 104 16 17 23 18
31 8 56 -11 26 -46 52 -70 52 -5 0 -20 -9 -35 -21z m79 -14 c29 -28 31 -42 9
-73 -18 -26 -75 -30 -93 -8 -21 25 -9 79 19 93 34 17 37 17 65 -12z"/>
<path d="M3063 2264 c19 -6 22 -15 7 -30 -8 -8 -7 -14 2 -22 10 -8 13 -3 13
21 0 24 -5 32 -20 34 -16 1 -16 1 -2 -3z"/>
<path d="M1295 2293 c-78 -18 -102 -29 -140 -64 -138 -127 -110 -358 51 -425
37 -15 108 -17 139 -4 15 6 7 9 -30 10 -54 1 -126 29 -163 63 -46 43 -67 96
-66 173 0 62 4 79 29 120 36 59 115 104 179 104 84 -1 177 -64 221 -150 36
-72 48 -126 54 -255 l6 -120 65 60 c107 99 204 210 217 249 15 44 4 82 -35
113 l-27 23 66 0 c42 0 72 5 85 15 17 13 3 14 -132 15 -136 0 -153 -2 -168
-19 -17 -19 -16 -20 36 -30 70 -15 116 -43 124 -78 11 -41 -35 -117 -121 -203
l-75 -74 0 85 c0 197 -82 345 -214 384 -50 15 -65 16 -101 8z"/>
<path d="M983 2265 c-21 -19 -24 -24 -11 -25 23 0 30 -30 23 -87 l-6 -48 25
45 c24 44 32 92 20 124 -8 22 -18 20 -51 -9z"/>
<path d="M267 2237 c-15 -23 -15 -27 -1 -41 25 -25 60 -29 173 -20 165 14 229
10 286 -15 62 -28 93 -55 116 -106 25 -54 23 -110 -5 -171 -49 -105 -158 -147
-272 -104 l-26 10 41 45 c23 25 46 57 51 71 26 67 -1 149 -59 179 -41 20 -43
20 -69 -20 l-22 -35 35 0 c80 0 113 -94 60 -172 -36 -52 -54 -55 -143 -17 -62
26 -91 33 -150 33 -69 1 -75 -1 -98 -27 -13 -15 -24 -33 -23 -40 0 -7 5 -2 11
9 21 45 90 55 191 29 75 -19 138 -51 117 -59 -8 -3 -40 -15 -70 -26 -74 -26
-40 -26 38 1 61 21 63 21 100 3 27 -14 60 -19 124 -19 80 0 89 2 129 30 49 34
75 79 91 156 22 109 -34 213 -141 262 -40 18 -71 22 -243 26 -177 5 -199 8
-211 25 -13 17 -14 17 -30 -7z"/>
<path d="M1945 2098 c-2 -7 -22 -66 -44 -130 -48 -140 -62 -218 -38 -218 22 0
30 17 33 69 1 27 21 96 48 164 25 66 46 121 46 123 0 10 -41 3 -45 -8z"/>
<path d="M2025 2098 c-2 -7 -22 -66 -44 -130 -48 -140 -62 -218 -38 -218 22 0
30 17 32 69 1 27 21 94 49 164 25 65 46 120 46 122 0 11 -41 4 -45 -7z"/>
<path d="M2266 2098 c-2 -7 -23 -65 -46 -128 -46 -126 -63 -220 -38 -220 25 0
36 21 31 58 -4 28 7 66 41 155 25 66 46 125 46 133 0 17 -29 19 -34 2z"/>
<path d="M2893 2093 c-3 -10 -19 -53 -35 -95 -28 -74 -31 -78 -60 -78 -45 0
-108 -66 -108 -113 0 -33 20 -67 39 -67 5 0 20 9 34 20 21 17 26 18 31 5 8
-21 33 -19 46 5 8 14 8 20 0 20 -16 0 -5 45 46 183 24 65 44 122 44 127 0 17
-30 11 -37 -7z m-99 -241 c-1 -50 -31 -89 -59 -78 -38 14 4 132 44 124 12 -3
16 -15 15 -46z"/>
<path d="M2303 1953 c-7 -3 -13 -10 -13 -17 0 -7 -11 -18 -25 -24 -29 -13 -34
-34 -7 -30 22 4 20 -8 -25 -145 -20 -60 -42 -111 -49 -114 -10 -4 -11 -10 -3
-24 5 -10 13 -19 18 -19 4 0 21 38 37 84 27 82 29 84 56 79 21 -4 34 1 58 25
41 42 43 101 3 132 -16 12 -30 30 -33 39 -3 10 -11 16 -17 14z m47 -99 c14
-37 -7 -78 -43 -82 -30 -4 -32 1 -16 64 13 52 43 61 59 18z"/>
<path d="M1807 1934 c-13 -13 -7 -24 14 -24 11 0 19 5 17 12 -5 14 -22 21 -31
12z"/>
<path d="M2048 1881 c-35 -36 -39 -44 -36 -82 4 -57 27 -71 68 -41 24 18 30
19 30 7 0 -15 30 -22 30 -7 1 4 2 33 4 64 4 46 2 56 -10 51 -8 -3 -14 -13 -14
-22 0 -25 -38 -81 -55 -81 -8 0 -19 8 -24 18 -25 46 28 127 79 120 16 -2 27
-1 24 4 -13 21 -58 6 -96 -31z"/>
<path d="M2428 1881 c-35 -36 -39 -44 -36 -82 4 -57 27 -71 68 -41 24 18 30
19 30 7 0 -15 30 -22 30 -7 1 4 2 33 4 64 3 44 1 56 -9 52 -7 -3 -15 -18 -18
-33 -14 -70 -77 -95 -77 -31 0 65 49 114 95 96 9 -3 13 -2 10 4 -14 23 -58 9
-97 -29z"/>
<path d="M2567 1858 c-3 -35 -9 -74 -13 -87 -5 -17 -3 -22 6 -19 7 2 19 23 26
47 12 43 39 81 57 81 5 0 6 -24 2 -59 -8 -67 -1 -89 21 -70 10 8 11 15 4 24
-8 9 -8 32 -1 76 6 35 8 65 6 68 -3 2 -17 -2 -32 -10 -16 -7 -31 -15 -35 -17
-5 -2 -8 3 -8 12 0 9 -6 16 -14 16 -9 0 -15 -19 -19 -62z"/>
<path d="M2917 1909 c-26 -15 -47 -63 -47 -109 0 -33 4 -42 25 -52 64 -29 140
107 87 155 -21 19 -39 21 -65 6z m56 -56 c-8 -54 -30 -85 -56 -81 -52 7 -17
118 38 118 22 0 23 -3 18 -37z"/>
<path d="M1782 1835 c-16 -60 -15 -85 2 -85 20 0 31 20 28 50 -2 14 2 38 7 53
9 23 8 27 -7 27 -13 0 -21 -13 -30 -45z"/>
<path d="M185 1770 c10 -11 20 -20 23 -20 3 0 -3 9 -13 20 -10 11 -20 20 -23
20 -3 0 3 -9 13 -20z"/>
<path d="M228 1743 c7 -3 16 -2 19 1 4 3 -2 6 -13 5 -11 0 -14 -3 -6 -6z"/>
<path d="M278 1733 c12 -2 32 -2 45 0 12 2 2 4 -23 4 -25 0 -35 -2 -22 -4z"/>
<path d="M392 1493 c3 -57 4 -58 33 -60 28 -2 28 -1 5 5 -15 5 -25 15 -25 27
0 12 9 22 25 26 l25 7 -27 1 c-21 1 -28 6 -28 20 0 14 8 21 28 24 25 4 24 4
-6 6 l-33 1 3 -57z"/>
<path d="M1633 1495 c0 -33 2 -45 4 -27 2 18 2 45 0 60 -2 15 -4 0 -4 -33z"/>
<path d="M1770 1530 c0 -14 -5 -18 -17 -13 -16 5 -15 4 1 -9 14 -11 17 -22 12
-41 -3 -14 -2 -29 4 -32 6 -4 10 16 10 54 0 34 -2 61 -5 61 -3 0 -5 -9 -5 -20z"/>
<path d="M1980 1530 c0 -14 -5 -18 -17 -13 -16 5 -15 4 1 -9 13 -10 17 -23 14
-41 -3 -15 -1 -27 3 -27 5 0 9 25 9 55 0 30 -2 55 -5 55 -3 0 -5 -9 -5 -20z"/>
<path d="M481 1498 c10 -22 9 -31 -2 -45 -13 -17 -13 -17 4 -4 10 8 25 28 33
45 11 24 12 27 1 14 -13 -16 -15 -16 -31 0 -17 16 -17 16 -5 -10z"/>
<path d="M551 1463 c1 -32 3 -51 6 -42 2 11 12 15 28 12 17 -4 28 2 40 20 24
37 6 67 -40 67 l-35 0 1 -57z m68 28 c13 -24 -8 -55 -35 -49 -20 3 -30 29 -20
54 8 20 43 17 55 -5z"/>
<path d="M657 1513 c-13 -12 -7 -60 8 -73 16 -13 65 -6 65 10 0 6 -8 5 -19 -1
-10 -7 -26 -9 -35 -6 -21 8 -21 53 2 66 14 9 15 10 1 11 -9 0 -19 -3 -22 -7z"/>
<path d="M708 1513 c6 -2 12 -11 12 -19 0 -8 5 -14 10 -14 7 0 7 6 0 20 -6 11
-16 20 -23 19 -9 0 -9 -2 1 -6z"/>
<path d="M752 1473 c1 -41 2 -43 5 -13 3 19 9 41 15 47 8 10 6 13 -6 13 -13 0
-16 -10 -14 -47z"/>
<path d="M793 1480 c0 -25 2 -35 4 -22 2 12 2 32 0 45 -2 12 -4 2 -4 -23z"/>
<path d="M832 1508 c-14 -14 -16 -54 -3 -62 4 -3 7 8 5 24 -2 20 2 33 14 39 9
6 12 11 7 11 -6 0 -16 -5 -23 -12z"/>
<path d="M888 1502 c9 -10 19 -17 21 -16 6 5 -20 34 -30 34 -5 0 -1 -8 9 -18z"/>
<path d="M930 1503 c0 -10 4 -14 8 -8 4 6 11 13 16 18 5 4 2 7 -7 7 -10 0 -17
-8 -17 -17z"/>
<path d="M977 1509 c6 -8 13 -30 16 -49 4 -28 4 -26 3 9 -1 30 -6 46 -16 49
-12 4 -13 2 -3 -9z"/>
<path d="M1020 1499 c-9 -16 -8 -26 5 -45 18 -28 47 -31 66 -6 11 14 11 15 -1
5 -37 -33 -82 5 -54 45 8 12 11 22 5 22 -6 0 -15 -9 -21 -21z"/>
<path d="M1070 1510 c20 -13 33 -13 25 0 -3 6 -14 10 -23 10 -15 0 -15 -2 -2
-10z"/>
<path d="M1123 1475 c0 -27 2 -38 4 -22 2 15 2 37 0 50 -2 12 -4 0 -4 -28z"/>
<path d="M1163 1513 c-18 -7 -16 -58 2 -73 22 -19 64 -4 71 25 10 42 -27 67
-73 48z m56 -17 c18 -22 -4 -58 -32 -54 -37 5 -36 68 1 68 11 0 25 -6 31 -14z"/>
<path d="M1301 1515 c0 -5 6 -32 13 -59 l12 -48 22 53 c12 28 21 54 18 56 -2
2 -9 -10 -16 -27 -16 -38 -25 -38 -38 3 -5 17 -10 28 -11 22z"/>
<path d="M1428 1495 c-21 -46 42 -88 73 -47 11 14 11 15 -1 5 -21 -19 -48 -16
-60 6 -13 25 -13 27 6 45 8 9 11 16 4 16 -6 0 -16 -11 -22 -25z"/>
<path d="M1470 1516 c0 -2 7 -7 16 -10 8 -3 12 -2 9 4 -6 10 -25 14 -25 6z"/>
<path d="M1537 1513 c-13 -12 -7 -60 8 -73 8 -7 25 -10 40 -6 21 5 25 12 25
46 0 39 -1 40 -33 40 -19 0 -37 -3 -40 -7z m58 -38 c0 -25 -4 -30 -25 -30 -16
0 -26 6 -28 18 -6 30 6 49 30 45 18 -2 23 -9 23 -33z"/>
<path d="M1702 1508 c-26 -26 -1 -78 36 -78 12 0 9 4 -8 13 -30 15 -36 39 -15
61 9 9 13 16 8 16 -5 0 -14 -5 -21 -12z"/>
<path d="M1813 1513 c-18 -7 -16 -58 2 -73 9 -7 26 -9 45 -5 27 6 30 10 30 44
0 35 -2 37 -32 38 -18 1 -39 -1 -45 -4z m56 -22 c13 -24 -8 -55 -35 -49 -20 3
-30 29 -20 54 8 20 43 17 55 -5z"/>
<path d="M1912 1508 c-26 -26 -1 -78 36 -78 12 0 9 4 -8 13 -30 15 -36 39 -15
61 9 9 13 16 8 16 -5 0 -14 -5 -21 -12z"/>
<path d="M2058 1495 c-21 -46 41 -87 73 -48 13 15 12 15 -7 3 -31 -19 -54 -6
-54 29 0 16 6 32 13 34 9 4 9 6 -1 6 -7 1 -18 -10 -24 -24z"/>
<path d="M2113 1509 c9 -5 17 -17 17 -26 0 -9 3 -14 6 -10 11 11 -7 47 -24 47
-16 -1 -15 -2 1 -11z"/>
<path d="M2161 1478 l2 -43 6 35 c4 26 12 36 28 38 19 3 22 -2 26 -40 l4 -43
-1 45 c-1 43 -2 45 -33 48 -33 3 -33 3 -32 -40z"/>
<path d="M2302 1478 c-1 -25 -5 -55 -8 -65 -5 -14 -4 -15 5 -7 8 7 11 31 8 65
l-3 54 -2 -47z"/>
<path d="M2337 1513 c-11 -11 -8 -58 5 -71 33 -33 91 16 68 57 -6 12 -16 21
-22 21 -7 0 -7 -5 2 -14 6 -8 10 -25 8 -38 -2 -17 -10 -23 -28 -23 -18 0 -26
6 -28 23 -2 13 2 30 8 38 12 14 0 21 -13 7z"/>
<path d="M2436 1478 c8 -24 13 -52 10 -62 -3 -11 -1 -15 4 -10 11 12 51 114
44 114 -3 0 -10 -13 -15 -30 -6 -16 -15 -30 -19 -30 -4 0 -13 14 -19 30 -5 17
-12 30 -15 30 -3 0 2 -19 10 -42z"/>
<path d="M2510 1499 c-9 -16 -8 -26 5 -45 18 -28 47 -31 66 -7 13 15 12 15 -7
3 -31 -19 -54 -6 -54 29 0 16 6 32 13 34 9 4 9 6 0 6 -7 1 -17 -8 -23 -20z"/>
<path d="M2572 1500 c14 -22 24 -19 15 5 -4 8 -11 15 -17 15 -6 0 -6 -7 2 -20z"/>
<path d="M2612 1478 c1 -41 1 -41 5 -8 3 19 10 38 16 42 8 5 6 8 -5 8 -15 0
-18 -8 -16 -42z"/>
<path d="M2653 1480 c0 -25 2 -35 4 -22 2 12 2 32 0 45 -2 12 -4 2 -4 -23z"/>
<path d="M2692 1508 c-16 -16 -15 -53 3 -68 9 -7 26 -9 45 -5 27 6 30 10 30
44 0 35 -2 37 -33 39 -18 1 -38 -3 -45 -10z m62 -14 c9 -25 -12 -56 -37 -52
-22 3 -33 28 -23 54 7 19 52 18 60 -2z"/>
<path d="M870 1444 c-16 -8 -19 -14 -9 -14 8 0 24 7 35 15 24 18 7 18 -26 -1z"/>
</g>
</svg>
