<?xml version="1.0" standalone="no"?>
<!DOCTYPE svg PUBLIC "-//W3C//DTD SVG 20010904//EN"
 "http://www.w3.org/TR/2001/REC-SVG-20010904/DTD/svg10.dtd">
<svg version="1.0" xmlns="http://www.w3.org/2000/svg"
 width="484.000000pt" height="252.000000pt" viewBox="0 0 484.000000 252.000000"
 preserveAspectRatio="xMidYMid meet">

<g transform="translate(0.000000,252.000000) scale(0.100000,-0.100000)"
fill="#000000" stroke="none">
<path d="M1786 2494 c-664 -126 -1190 -384 -1459 -714 -75 -92 -156 -247 -178
-340 -20 -80 -17 -251 5 -330 101 -370 511 -702 1119 -904 822 -274 1901 -271
2717 9 74 26 143 49 153 52 18 6 22 20 9 40 -5 9 -50 -3 -167 -42 -88 -30
-203 -65 -255 -79 -1228 -315 -2703 -63 -3306 565 -391 408 -308 875 221 1255
181 129 524 283 805 360 124 34 361 86 453 99 38 5 47 10 43 22 -3 8 -6 19 -6
24 0 12 -3 11 -154 -17z"/>
<path d="M880 1925 c-61 -85 -62 -86 -45 -111 9 -14 42 -37 72 -51 78 -36 195
-41 394 -17 382 46 616 3 759 -138 78 -77 113 -158 118 -275 5 -112 -18 -199
-76 -288 -125 -193 -345 -263 -559 -179 -37 14 -72 30 -76 34 -4 4 11 20 33
35 60 41 143 135 170 191 16 33 25 73 28 121 4 61 0 80 -22 128 -14 31 -39 74
-56 95 -34 43 -148 132 -162 128 -11 -4 -148 -181 -144 -185 2 -2 15 1 30 7
39 15 112 12 145 -4 42 -22 89 -81 102 -128 15 -56 6 -143 -19 -201 -24 -54
-100 -134 -136 -143 -19 -4 -53 5 -119 34 -257 112 -469 139 -603 78 -125 -57
-127 -184 -3 -255 133 -76 356 -64 602 31 l79 30 76 -35 c201 -94 403 -92 554
5 69 43 158 144 195 219 157 318 15 654 -322 762 -126 41 -225 49 -565 45
-296 -3 -328 -1 -357 15 -38 20 -48 51 -35 101 6 20 9 36 7 36 -2 0 -31 -38
-65 -85z m194 -920 c110 -28 289 -96 278 -107 -15 -14 -157 -70 -231 -90 -54
-14 -110 -21 -191 -22 -101 -1 -121 2 -168 23 -60 27 -112 81 -112 116 0 49
56 93 140 109 48 9 193 -5 284 -29z"/>
<path d="M2516 1931 c-49 -39 -86 -71 -83 -71 4 0 23 8 43 17 36 17 36 17 55
-6 16 -19 19 -39 18 -120 0 -53 -4 -117 -8 -143 -4 -27 -7 -48 -5 -48 9 0 97
159 110 201 21 62 14 130 -18 194 l-24 46 -88 -70z"/>
<path d="M3122 1989 c-113 -22 -236 -104 -308 -205 -68 -95 -95 -177 -102
-300 -8 -164 27 -269 125 -374 97 -105 239 -155 374 -133 78 14 139 39 139 57
0 12 -18 13 -99 9 -120 -7 -207 15 -291 74 -116 81 -178 194 -187 339 -16 237
132 433 342 453 231 23 399 -87 529 -346 73 -146 99 -323 94 -641 -2 -111 -3
-202 -3 -202 0 0 133 132 296 293 366 362 406 419 397 561 -5 80 -39 135 -110
179 l-51 32 164 5 c156 5 166 6 204 31 87 57 98 55 -307 51 l-371 -3 -45 -50
-44 -49 30 0 c85 0 246 -49 324 -99 56 -36 108 -118 108 -171 0 -89 -79 -197
-307 -420 l-168 -165 -6 205 c-7 224 -21 314 -70 440 -67 173 -186 326 -299
382 -107 53 -240 71 -358 47z"/>
</g>
</svg>
